<svg width="33" height="32" viewBox="0 0 33 32" fill="none" xmlns="http://www.w3.org/2000/svg">
<rect x="0.40625" width="32" height="32" rx="16" fill="#040612"/>
<g filter="url(#filter0_d_11_4)">
<path d="M24.9062 8.25L20.2656 17.9062C18.526 21.5312 17.099 24.6979 15.9844 27.4062H15.3594C14.974 26.4792 13.8698 24.099 12.0469 20.2656L6.45312 8.6875V20.7656C6.45312 23.5781 6.5625 25.1771 6.78125 25.5625C7.01042 25.9375 7.70833 26.125 8.875 26.125H9.45312V27.1094C8.00521 27.0365 6.82812 27 5.92188 27C5.26562 27 3.95833 27.0365 2 27.1094V26.125H3.01562C3.70312 26.125 4.16146 26.026 4.39062 25.8281C4.61979 25.6302 4.76042 25.2708 4.8125 24.75C4.94792 23.2917 5.01562 21.7188 5.01562 20.0312V11.1875C5.01562 9.05208 4.96875 7.64062 4.875 6.95312C4.83333 6.59896 4.67708 6.32812 4.40625 6.14062C4.14583 5.95312 3.61979 5.85938 2.82812 5.85938H2V4.875C3.8125 4.94792 4.95312 4.98438 5.42188 4.98438C6.01562 4.98438 6.85938 4.94792 7.95312 4.875C9.21354 7.67708 10.6667 10.7656 12.3125 14.1406L16.4219 22.5938L20.2188 14.7656C21.5521 12.026 23.0729 8.72917 24.7812 4.875C26.0833 4.94792 27 4.98438 27.5312 4.98438C28.1458 4.98438 29.2552 4.94792 30.8594 4.875V5.85938H29.8438C28.9271 5.85938 28.3646 6.02083 28.1562 6.34375C27.9583 6.65625 27.8594 7.79688 27.8594 9.76562V21.1875C27.8594 23.7292 27.9635 25.1875 28.1719 25.5625C28.3906 25.9375 28.9896 26.125 29.9688 26.125H30.8594V27.1094C29.4115 27.0365 28.026 27 26.7031 27C25.2448 27 23.7188 27.0365 22.125 27.1094V26.125H23.1562C23.9792 26.125 24.474 25.9479 24.6406 25.5938C24.8177 25.2292 24.9062 23.6823 24.9062 20.9531V8.25Z" fill="#F5901D" fill-opacity="0.75" shape-rendering="crispEdges"/>
</g>
<defs>
<filter id="filter0_d_11_4" x="0" y="2.875" width="32.8594" height="26.5312" filterUnits="userSpaceOnUse" color-interpolation-filters="sRGB">
<feFlood flood-opacity="0" result="BackgroundImageFix"/>
<feColorMatrix in="SourceAlpha" type="matrix" values="0 0 0 0 0 0 0 0 0 0 0 0 0 0 0 0 0 0 127 0" result="hardAlpha"/>
<feOffset/>
<feGaussianBlur stdDeviation="1"/>
<feComposite in2="hardAlpha" operator="out"/>
<feColorMatrix type="matrix" values="0 0 0 0 0.933333 0 0 0 0 1 0 0 0 0 0 0 0 0 0.25 0"/>
<feBlend mode="normal" in2="BackgroundImageFix" result="effect1_dropShadow_11_4"/>
<feBlend mode="normal" in="SourceGraphic" in2="effect1_dropShadow_11_4" result="shape"/>
</filter>
</defs>
</svg>
